<?xml version="1.0" encoding="UTF-8"?>
<svg id="Layer_1" data-name="Layer 1" xmlns="http://www.w3.org/2000/svg" xmlns:xlink="http://www.w3.org/1999/xlink" viewBox="0 0 80 80">
  <defs>
    <style>
      .cls-1 {
        fill: none;
      }

      .cls-2 {
        fill: #f0e8f7;
      }

      .cls-3 {
        fill: #be8fdc;
      }

      .cls-4 {
        fill: #895daf;
      }

      .cls-5 {
        fill: #d8bbef;
      }

      .cls-6 {
        clip-path: url(#clippath);
      }
    </style>
    <clipPath id="clippath">
      <rect class="cls-1" y="0" width="80" height="80"/>
    </clipPath>
  </defs>
  <g class="cls-6">
    <g>
      <path class="cls-3" d="M0,30.01l38.52,24.51c.44.33.96.49,1.48.49s1.04-.16,1.48-.49l38.52-24.51L41.5.51c-.89-.67-2.11-.67-3,0L0,30.01Z"/>
      <path class="cls-2" d="M65,0H15C12.24,0,10,2.25,10,5.01v55c0,1.38,1.12,2.5,2.5,2.5h55c1.38,0,2.5-1.12,2.5-2.5V5.01C70,2.25,67.76,0,65,0Z"/>
      <path class="cls-5" d="M22.5,15.01h35c1.38,0,2.5-1.12,2.5-2.5s-1.12-2.5-2.5-2.5H22.5c-1.38,0-2.5,1.12-2.5,2.5s1.12,2.5,2.5,2.5Z"/>
      <path class="cls-5" d="M57.5,20.01H22.5c-1.38,0-2.5,1.12-2.5,2.5s1.12,2.5,2.5,2.5h35c1.38,0,2.5-1.12,2.5-2.5s-1.12-2.5-2.5-2.5Z"/>
      <path class="cls-5" d="M42.5,30.01h-20c-1.38,0-2.5,1.12-2.5,2.5s1.12,2.5,2.5,2.5h20c1.38,0,2.5-1.12,2.5-2.5s-1.12-2.5-2.5-2.5Z"/>
      <path class="cls-4" d="M41.48,54.52c-.44.33-.96.49-1.48.49s-1.04-.16-1.48-.49L0,30.01v45c0,2.76,2.24,5,5,5h70c2.76,0,5-2.24,5-5V30.01l-38.52,24.52Z"/>
      <path class="cls-3" d="M75,80.01H5c-2.81,0-5-2.19-5-5,0-.79.38-1.54,1.02-2.01l37.5-25c.44-.33.96-.49,1.48-.49s1.04.16,1.48.49l37.5,25c.64.47,1.02,1.22,1.02,2.01,0,2.81-2.19,5-5,5Z"/>
    </g>
  </g>
</svg>