<?xml version="1.0" encoding="UTF-8"?>
<svg id="Layer_1" data-name="Layer 1" xmlns="http://www.w3.org/2000/svg" viewBox="0 0 18 18">
  <defs>
    <style>
      .cls-1 {
        fill: #be8fdc;
      }
    </style>
  </defs>
  <path class="cls-1" d="M15.85,8.64l-2.04-.58c-.92-.26-1.76-.75-2.44-1.43-.68-.68-1.17-1.52-1.43-2.44l-.58-2.04c-.03-.07-.08-.13-.14-.18-.06-.04-.14-.07-.22-.07s-.15.02-.22.07c-.06.04-.11.1-.14.18l-.58,2.04c-.26.92-.75,1.76-1.43,2.44-.68.68-1.52,1.17-2.44,1.43l-2.04.58c-.08.02-.15.07-.2.13-.05.07-.08.14-.08.23s.03.16.08.23c.05.07.12.11.2.13l2.04.58c.92.26,1.76.75,2.44,1.43.68.68,1.17,1.52,1.43,2.44l.58,2.04c.02.08.07.15.13.2.07.05.14.08.23.08s.16-.03.23-.08c.07-.05.11-.12.13-.2l.58-2.04c.26-.92.75-1.76,1.43-2.44.68-.68,1.52-1.17,2.44-1.43l2.04-.58c.08-.02.15-.07.2-.13.05-.07.08-.14.08-.23s-.03-.16-.08-.23c-.05-.07-.12-.11-.2-.13Z"/>
</svg>