<?xml version="1.0" encoding="UTF-8"?>
<svg id="Layer_1" data-name="Layer 1" xmlns="http://www.w3.org/2000/svg" viewBox="0 0 61 40">
  <defs>
    <style>
      .cls-1 {
        fill: #131114;
      }
    </style>
  </defs>
  <path class="cls-1" d="M9.62,0h11.31s.05-.05.1-.05l.15.13,7.84,13.56c.1.01.05-.12.03-.17-.1-.37-.29-.75-.4-1.12-1.35-4.78.31-9.94,4.63-12.51l5.21,8.79c.1.02.06-.14.05-.19-.27-1.57-.5-2.28-.01-3.91,1.64-5.48,9.27-6.24,12-1.2,3.36,6.21-4.15,12.63-9.78,8.31l-.91-.81,4.93,8.4c.14.23-.2.36-.38.46-3.75,2.11-8.69,1.17-11.91-1.48-.68-.56-1.24-1.22-1.83-1.86l7.94,13.8-5.77,10L9.62,0Z"/>
</svg>