<?xml version="1.0" encoding="UTF-8"?>
<svg id="Layer_1" data-name="Layer 1" xmlns="http://www.w3.org/2000/svg" viewBox="0 0 170.49 40">
  <defs>
    <style>
      .cls-1 {
        fill: #fff;
      }

      .cls-2 {
        fill: #be8fdc;
      }
    </style>
  </defs>
  <path class="cls-2" d="M-.21.47h11.22s.05-.05.1-.05l.15.13,7.78,13.46c.1.01.05-.12.03-.17-.1-.36-.29-.74-.4-1.12-1.34-4.74.31-9.86,4.6-12.42l5.17,8.72c.1.02.06-.13.05-.19-.27-1.56-.5-2.26-.01-3.88,1.63-5.44,9.2-6.19,11.91-1.19,3.34,6.16-4.11,12.53-9.7,8.25l-.9-.8,4.89,8.34c.13.23-.2.35-.38.45-3.72,2.09-8.62,1.16-11.81-1.47-.67-.55-1.23-1.21-1.82-1.84l7.88,13.69-5.72,9.92L-.21.47Z"/>
  <g>
    <path class="cls-1" d="M54.79,20.71l-5.15-14.26h3.26l3.79,11.16,3.79-11.16h3.24l-5.13,14.26h-3.79Z"/>
    <path class="cls-1" d="M65.77,20.71V6.45h3.05v14.26h-3.05Z"/>
    <path class="cls-1" d="M71.96,20.71V6.45h9.55v2.46h-6.5v3.36h5.89v2.36h-5.89v3.61h6.5v2.46h-9.55Z"/>
    <path class="cls-1" d="M84.35,20.71V6.45h3.05l6.25,9.35V6.45h3.05v14.26h-3.05l-6.25-9.33v9.33h-3.05Z"/>
    <path class="cls-1" d="M99.84,20.71V6.45h3.05v14.26h-3.05ZM102.51,14.66v-2.46h6.76v2.46h-6.76ZM108.81,20.71V6.45h3.05v14.26h-3.05Z"/>
    <path class="cls-1" d="M114.02,20.71l5.19-14.26h3.48l5.19,14.26h-3.22l-3.73-10.81-3.73,10.81h-3.2ZM116.28,17.59l.79-2.36h7.5l.77,2.36h-9.06Z"/>
    <path class="cls-1" d="M130.09,20.71V6.45h3.05l6.25,9.35V6.45h3.05v14.26h-3.05l-6.25-9.33v9.33h-3.05Z"/>
    <path class="cls-1" d="M152.06,20.95c-1.43,0-2.66-.31-3.7-.93-1.04-.62-1.84-1.48-2.39-2.59-.56-1.11-.83-2.38-.83-3.82s.28-2.75.83-3.86c.56-1.11,1.35-1.98,2.39-2.61,1.04-.63,2.27-.95,3.7-.95,1.75,0,3.19.44,4.32,1.32,1.13.88,1.82,2.13,2.08,3.73h-3.34c-.16-.72-.51-1.28-1.04-1.68-.53-.4-1.22-.6-2.06-.6s-1.48.19-2.05.57c-.56.38-.99.91-1.28,1.6-.29.69-.44,1.51-.44,2.47s.15,1.75.44,2.43c.29.69.72,1.22,1.28,1.59.56.37,1.25.56,2.05.56.84,0,1.53-.18,2.06-.54.53-.36.88-.88,1.04-1.56h3.34c-.26,1.51-.95,2.69-2.08,3.55-1.13.86-2.57,1.29-4.32,1.29Z"/>
    <path class="cls-1" d="M161.15,20.71V6.45h9.55v2.46h-6.5v3.36h5.89v2.36h-5.89v3.61h6.5v2.46h-9.55Z"/>
    <path class="cls-1" d="M53.3,34.41c-.71,0-1.32-.15-1.83-.46-.52-.31-.91-.74-1.19-1.29-.27-.55-.41-1.19-.41-1.92s.14-1.37.41-1.92.67-.99,1.19-1.3c.52-.31,1.13-.47,1.83-.47.87,0,1.58.22,2.14.65.56.43.9,1.05,1.04,1.83h-1.57c-.08-.38-.26-.67-.53-.88s-.64-.31-1.08-.31c-.41,0-.77.1-1.06.29-.29.19-.52.47-.67.83-.16.36-.23.79-.23,1.28s.08.92.23,1.28.38.63.67.82c.29.19.64.29,1.06.29.45,0,.81-.1,1.08-.29.27-.19.45-.46.54-.81h1.57c-.14.74-.48,1.32-1.04,1.75-.56.42-1.27.64-2.14.64Z"/>
    <path class="cls-1" d="M60.03,34.29v-7.13h2.7c.58,0,1.05.1,1.43.3.38.2.66.46.84.79s.27.7.27,1.1c0,.38-.09.74-.27,1.07-.18.33-.46.6-.84.8-.38.2-.86.3-1.45.3h-1.26v2.77h-1.43ZM61.45,30.48h1.18c.41,0,.71-.1.9-.3s.29-.46.29-.78-.09-.57-.28-.76c-.19-.19-.49-.29-.9-.29h-1.18v2.13ZM63.72,34.29l-1.46-3.13h1.54l1.55,3.13h-1.63Z"/>
    <path class="cls-1" d="M68.88,34.29v-7.13h4.71v1.15h-3.29v1.8h2.98v1.11h-2.98v1.91h3.29v1.15h-4.71Z"/>
    <path class="cls-1" d="M76.75,34.29l2.6-7.13h1.63l2.6,7.13h-1.52l-1.9-5.51-1.91,5.51h-1.49ZM77.89,32.69l.38-1.11h3.67l.37,1.11h-4.41Z"/>
    <path class="cls-1" d="M87.8,34.29v-5.98h-2.08v-1.15h5.57v1.15h-2.08v5.98h-1.42Z"/>
    <path class="cls-1" d="M94.65,34.29v-7.13h1.43v7.13h-1.43Z"/>
    <path class="cls-1" d="M101.89,34.29l-2.59-7.13h1.52l1.94,5.68,1.96-5.68h1.51l-2.59,7.13h-1.75Z"/>
    <path class="cls-1" d="M109.47,34.29v-7.13h4.71v1.15h-3.29v1.8h2.98v1.11h-2.98v1.91h3.29v1.15h-4.71Z"/>
    <path class="cls-1" d="M125.04,34.41c-.51,0-.97-.09-1.37-.26-.41-.18-.73-.43-.96-.77-.23-.34-.36-.75-.37-1.23h1.51c.01.2.07.39.17.55.1.16.23.29.41.39.17.1.38.14.63.14.2,0,.38-.03.53-.1.15-.07.27-.16.36-.29.09-.12.13-.27.13-.45,0-.19-.05-.35-.15-.48s-.23-.25-.4-.34-.37-.18-.6-.26-.46-.16-.71-.24c-.56-.18-.99-.43-1.29-.74-.3-.31-.44-.72-.44-1.23,0-.43.1-.8.31-1.11.21-.31.5-.54.87-.7s.79-.24,1.26-.24.92.08,1.28.25c.37.17.66.41.87.72s.33.68.34,1.11h-1.54c0-.16-.04-.3-.13-.43s-.2-.24-.34-.32c-.14-.08-.31-.12-.5-.12-.18,0-.33.02-.47.08s-.25.14-.33.25c-.08.11-.12.25-.12.42s.04.31.12.42c.08.11.2.21.35.29s.32.16.52.23c.2.07.41.14.64.22.36.12.69.27.99.43.3.17.54.38.71.65s.26.61.26,1.05c0,.38-.1.73-.29,1.05-.19.32-.48.58-.86.78-.38.2-.84.3-1.39.3Z"/>
    <path class="cls-1" d="M132.74,34.29v-5.98h-2.08v-1.15h5.57v1.15h-2.08v5.98h-1.42Z"/>
    <path class="cls-1" d="M142.37,34.41c-.53,0-1.01-.11-1.44-.32-.43-.21-.77-.53-1.02-.95-.25-.42-.38-.96-.38-1.61v-4.37h1.43v4.38c0,.35.06.63.17.87.11.23.28.41.49.52.22.12.48.18.77.18s.58-.06.79-.18c.21-.12.38-.29.49-.52.12-.23.17-.52.17-.87v-4.38h1.43v4.37c0,.65-.13,1.19-.39,1.61-.26.42-.61.74-1.05.95-.44.21-.93.32-1.46.32Z"/>
    <path class="cls-1" d="M148.98,34.29v-7.13h2.4c.83,0,1.51.15,2.05.44.54.3.94.71,1.2,1.24.26.53.39,1.16.39,1.88s-.13,1.34-.39,1.87c-.26.54-.66.95-1.2,1.25-.54.3-1.22.44-2.05.44h-2.4ZM150.4,33.06h.91c.56,0,1.01-.09,1.34-.28.33-.19.57-.45.71-.8.14-.35.21-.77.21-1.26s-.07-.91-.21-1.26c-.14-.35-.38-.62-.71-.81-.33-.19-.78-.29-1.34-.29h-.91v4.69Z"/>
    <path class="cls-1" d="M158.59,34.29v-7.13h1.43v7.13h-1.43Z"/>
    <path class="cls-1" d="M167.08,34.41c-.69,0-1.3-.16-1.83-.47-.53-.31-.94-.74-1.24-1.3-.3-.55-.45-1.19-.45-1.92s.15-1.37.45-1.92c.3-.55.72-.99,1.24-1.3s1.14-.47,1.83-.47,1.32.16,1.85.47c.53.31.95.74,1.24,1.3.3.55.44,1.19.44,1.92s-.15,1.37-.44,1.92c-.3.55-.71.99-1.24,1.3-.53.31-1.15.47-1.85.47ZM167.08,33.13c.43,0,.8-.1,1.1-.3s.55-.47.72-.83c.17-.36.26-.78.26-1.28s-.09-.92-.26-1.28c-.17-.36-.41-.63-.72-.83-.31-.2-.68-.3-1.1-.3s-.78.1-1.09.3c-.31.2-.55.47-.72.83s-.25.78-.25,1.28.08.92.25,1.28.41.63.72.83c.31.2.68.3,1.09.3Z"/>
  </g>
</svg>