<?xml version="1.0" encoding="UTF-8"?>
<svg id="Layer_1" data-name="Layer 1" xmlns="http://www.w3.org/2000/svg" viewBox="0 0 30 30">
  <defs>
    <style>
      .cls-1 {
        fill: #d7d7d7;
        fill-rule: evenodd;
      }
    </style>
  </defs>
  <path class="cls-1" d="M2.34,1.27c-.93,0-1.68.75-1.68,1.68v24.11c0,.93.75,1.68,1.68,1.68h25.33c.93,0,1.68-.75,1.68-1.68V2.95c0-.93-.75-1.68-1.68-1.68H2.34ZM27.66,29.39H2.34C1.05,29.39,0,28.34,0,27.05V2.95C0,1.66,1.05.61,2.34.61h25.33c1.29,0,2.34,1.05,2.34,2.34v24.11c0,1.29-1.05,2.34-2.34,2.34h0Z"/>
  <path class="cls-1" d="M29.67,6.3H.33c-.18,0-.33-.15-.33-.33s.15-.33.33-.33h29.34c.18,0,.33.15.33.33s-.15.33-.33.33Z"/>
  <path class="cls-1" d="M6.46,3.79h-3.48c-.18,0-.33-.15-.33-.33s.15-.33.33-.33h3.48c.18,0,.33.15.33.33s-.15.33-.33.33Z"/>
  <path class="cls-1" d="M12.03,3.79h-3.48c-.18,0-.33-.15-.33-.33s.15-.33.33-.33h3.48c.18,0,.33.15.33.33s-.15.33-.33.33Z"/>
  <path class="cls-1" d="M17.6,3.79h-3.48c-.18,0-.33-.15-.33-.33s.15-.33.33-.33h3.48c.18,0,.33.15.33.33s-.15.33-.33.33Z"/>
  <path class="cls-1" d="M9.88,14.22l5.12,2.05,5.12-2.05-5.12-2.05-5.12,2.05ZM15,16.95s-.08,0-.12-.02l-6-2.4c-.12-.05-.21-.17-.21-.3s.08-.25.21-.3l6-2.4c.08-.03.17-.03.24,0l6,2.4c.12.05.21.17.21.3s-.08.25-.21.3l-6,2.4s-.08.02-.12.02h0Z"/>
  <path class="cls-1" d="M15,23.16s-.08,0-.12-.02l-6-2.4c-.12-.05-.21-.17-.21-.3v-6.21c0-.18.15-.33.33-.33s.33.15.33.33v5.99l5.68,2.27,5.68-2.27v-5.99c0-.18.15-.33.33-.33s.33.15.33.33v6.21c0,.13-.08.25-.21.3l-6,2.4s-.08.02-.12.02h0Z"/>
  <path class="cls-1" d="M15,23.16c-.18,0-.33-.15-.33-.33v-6.21c0-.18.15-.33.33-.33s.33.15.33.33v6.21c0,.18-.15.33-.33.33Z"/>
  <path class="cls-1" d="M12.03,18.7l2.97,1.19,2.97-1.19v-3.18l-2.97-1.19-2.97,1.19v3.18ZM15,20.57s-.08,0-.12-.02l-3.3-1.32c-.12-.05-.21-.17-.21-.3v-3.63c0-.13.08-.25.21-.3l3.3-1.32c.08-.03.17-.03.24,0l3.3,1.32c.12.05.21.17.21.3v3.63c0,.13-.08.25-.21.3l-3.3,1.32s-.08.02-.12.02h0Z"/>
  <path class="cls-1" d="M19.43,11.75c-.08,0-.17-.03-.23-.1-.13-.13-.13-.34,0-.46l3.26-3.26c.13-.13.34-.13.46,0,.13.13.13.34,0,.46l-3.26,3.26c-.06.06-.15.1-.23.1h0Z"/>
  <path class="cls-1" d="M22.7,10.56c-.18,0-.33-.15-.33-.33v-1.74h-1.74c-.18,0-.33-.15-.33-.33s.15-.33.33-.33h2.07c.18,0,.33.15.33.33v2.07c0,.18-.15.33-.33.33h0Z"/>
  <path class="cls-1" d="M10.57,11.75c-.08,0-.17-.03-.23-.1l-3.26-3.26c-.13-.13-.13-.34,0-.46.13-.13.34-.13.46,0l3.26,3.26c.13.13.13.34,0,.46-.06.06-.15.1-.23.1h0Z"/>
  <path class="cls-1" d="M7.3,10.56c-.18,0-.33-.15-.33-.33v-2.07c0-.18.15-.33.33-.33h2.07c.18,0,.33.15.33.33s-.15.33-.33.33h-1.74v1.74c0,.18-.15.33-.33.33h0Z"/>
  <path class="cls-1" d="M22.7,26.81c-.08,0-.17-.03-.23-.1l-3.26-3.26c-.13-.13-.13-.34,0-.46.13-.13.34-.13.46,0l3.26,3.26c.13.13.13.34,0,.46-.06.06-.15.1-.23.1Z"/>
  <path class="cls-1" d="M20.63,26.81c-.18,0-.33-.15-.33-.33s.15-.33.33-.33h1.74v-1.74c0-.18.15-.33.33-.33s.33.15.33.33v2.07c0,.18-.15.33-.33.33h-2.07Z"/>
  <path class="cls-1" d="M7.3,26.81c-.08,0-.17-.03-.23-.1-.13-.13-.13-.34,0-.46l3.26-3.26c.13-.13.34-.13.46,0,.13.13.13.34,0,.46l-3.26,3.26c-.06.06-.15.1-.23.1h0Z"/>
  <path class="cls-1" d="M9.37,26.81h-2.07c-.18,0-.33-.15-.33-.33v-2.07c0-.18.15-.33.33-.33s.33.15.33.33v1.74h1.74c.18,0,.33.15.33.33s-.15.33-.33.33h0Z"/>
</svg>