<?xml version="1.0" encoding="UTF-8"?>
<svg id="Layer_1" data-name="Layer 1" xmlns="http://www.w3.org/2000/svg" viewBox="0 0 30 30">
  <defs>
    <style>
      .cls-1 {
        fill: #d7d7d7;
      }
    </style>
  </defs>
  <path class="cls-1" d="M29.38,21.66c-.18-.55-.58-.99-1.1-1.24.56-.78.59-1.83.05-2.63-.32-.49-.83-.82-1.41-.92-.61-.11-1.24.03-1.74.4l-5.95,4.38-4.35-2.42c-.18-.09-.33-.23-.45-.39-2.12-2.74-5.11-3.15-8.87-1.24l-.13-.47c-.03-.1-.1-.19-.19-.24-.09-.05-.2-.07-.31-.04l-4.14,1.17c-.21.06-.34.28-.28.5l2.53,9.07h0c.03.1.1.19.19.24s.2.07.31.04l4.14-1.17c.21-.06.34-.28.28-.5l-.09-.34.87-.24c.32-.1.67-.08.98.06l7.3,3.12h0c.59.26,1.27.25,1.86-.03l9.21-4.25c1.11-.48,1.67-1.73,1.29-2.87h0ZM25.66,17.92c.32-.24.73-.33,1.12-.25.36.06.68.27.88.57.41.63.31,1.46-.24,1.96-.32-.02-.65.03-.95.14l-6.14,2.37c-.1-.21-.24-.41-.4-.58l5.73-4.22ZM3.72,27l-2.32-8.3,3.36-.95,2.32,8.3-3.36.95ZM27.76,23.81l-9.21,4.25c-.38.18-.82.19-1.2.02l-7.3-3.12c-.48-.21-1.02-.25-1.52-.1l-.87.24-1.87-6.7c3.49-1.82,6.11-1.51,8.01.94.19.24.42.45.7.6l4.58,2.54h0c.3.17.53.46.62.79,0,.02,0,.04.01.06h0c.08.34.03.68-.13.97-.36.63-1.16.86-1.8.51l-2.26-1.27h0c-.19-.08-.41,0-.51.17-.1.18-.05.41.12.53l2.26,1.27c1.02.57,2.32.21,2.89-.81.2-.36.3-.78.27-1.19l6.23-2.41h0c.38-.14.79-.13,1.16.05.33.15.58.43.7.78.25.76-.13,1.58-.86,1.89h0ZM11.38,9.02s0,.09,0,.14l-.4,1.76c-.09.4.04.82.35,1.09l1.43,1.28s.06.07.08.11l.71,1.66c.16.38.51.64.92.68l1.91.2h0s.09.02.13.04l1.55.92h0c.35.21.79.22,1.15,0l1.66-.96s.09-.04.13-.04l1.8-.17c.41-.04.77-.29.93-.67l.78-1.76s.05-.08.08-.11l1.36-1.19c.31-.27.45-.69.36-1.09l-.4-1.88h0s-.01-.09,0-.14l.4-1.76h0c.09-.4-.04-.82-.35-1.09l-1.43-1.28h0s-.06-.07-.08-.11l-.72-1.66h0c-.16-.38-.51-.64-.92-.68l-1.91-.2s-.09-.02-.13-.04l-1.55-.92c-.35-.21-.79-.21-1.15,0l-1.66.96s-.08.04-.13.04l-1.8.17c-.41.04-.77.29-.93.67l-.78,1.76h0s-.05.08-.08.11l-1.35,1.19c-.31.27-.45.69-.36,1.09l.4,1.88ZM11.87,6.66l1.36-1.19c.12-.11.22-.24.29-.39l.78-1.76h0c.05-.11.15-.19.27-.19l1.8-.17c.16-.01.32-.07.46-.15l1.66-.96c.1-.06.23-.06.33,0l1.55.92c.14.08.3.14.46.15l1.91.2h0c.12,0,.22.08.27.2l.72,1.66h0c.06.15.16.29.28.4l1.43,1.28c.09.08.13.2.1.31l-.4,1.76c-.04.16-.04.33,0,.49l.4,1.88h0c.03.12-.01.24-.1.31l-1.36,1.19h0c-.12.11-.22.24-.29.39l-.78,1.76c-.05.11-.15.19-.27.19l-1.8.17c-.16.01-.32.07-.46.15l-1.66.96c-.1.06-.23.06-.33,0l-1.55-.92c-.14-.08-.3-.14-.46-.15l-1.91-.2h0c-.12,0-.22-.08-.27-.2l-.71-1.66c-.06-.15-.16-.29-.28-.4l-1.43-1.28c-.09-.08-.13-.2-.1-.32l.4-1.76c.04-.16.04-.33,0-.49l-.4-1.88c-.03-.12.01-.24.1-.31h0ZM18.65,13.78c1.92,0,3.65-1.16,4.39-2.93.74-1.78.33-3.82-1.03-5.18-1.36-1.36-3.4-1.77-5.18-1.03-1.78.73-2.94,2.47-2.94,4.39,0,2.62,2.13,4.75,4.75,4.75h0ZM18.65,5.08c1.6,0,3.04.96,3.65,2.44.61,1.48.27,3.17-.86,4.3-1.13,1.13-2.83,1.47-4.3.86-1.48-.61-2.44-2.05-2.44-3.65,0-2.18,1.77-3.94,3.95-3.95h0ZM16.05,8.58l1.14.93-.38,1.42h0c-.04.16.02.33.15.43.13.1.32.1.45.01l1.23-.8,1.23.8h0c.14.09.32.09.46-.01.13-.1.2-.27.15-.43l-.38-1.42,1.14-.93h0c.13-.1.18-.28.13-.44-.05-.16-.19-.27-.36-.28l-1.47-.08-.53-1.37c-.06-.15-.21-.26-.38-.26s-.32.1-.38.26l-.53,1.37-1.47.08c-.17,0-.31.12-.36.28-.05.16,0,.33.13.44h0ZM18.05,8.58c.16,0,.3-.11.35-.26l.25-.64.25.64c.06.15.2.25.35.26l.68.04-.53.43h0c-.12.1-.18.26-.13.42l.18.66-.57-.37c-.13-.09-.3-.09-.44,0l-.58.37.18-.66c.04-.15-.01-.32-.13-.42l-.53-.43.68-.04Z"/>
</svg>