<?xml version="1.0" encoding="UTF-8"?>
<svg id="Layer_1" data-name="Layer 1" xmlns="http://www.w3.org/2000/svg" viewBox="0 0 30 30">
  <defs>
    <style>
      .cls-1 {
        fill: #d7d7d7;
      }
    </style>
  </defs>
  <path class="cls-1" d="M15,0c-.28,0-.51.23-.52.52v1.9C7.94,2.68,2.68,7.94,2.41,14.48H.52C.23,14.48,0,14.71,0,15c0,.29.23.52.52.52,0,0,0,0,0,0h1.9c.27,6.54,5.53,11.8,12.07,12.07v1.9c0,.29.23.52.52.52h0c.29,0,.52-.23.52-.52,0,0,0,0,0,0v-1.9c6.54-.27,11.8-5.53,12.07-12.07h1.9c.29,0,.52-.23.52-.52h0c0-.28-.23-.51-.52-.52h-1.9c-.26-6.54-5.53-11.8-12.07-12.07V.52C15.52.23,15.28,0,15,0h0ZM14.48,3.45v1.87c0,.29.23.52.52.52h0c.29,0,.52-.23.52-.52,0,0,0,0,0,0v-1.87c5.98.26,10.77,5.05,11.03,11.03h-1.88c-.28,0-.52.23-.52.52,0,.29.23.52.52.52,0,0,0,0,0,0h1.88c-.26,5.98-5.06,10.77-11.03,11.03v-1.87c0-.29-.23-.52-.52-.52h0c-.28,0-.51.23-.52.52v1.87c-5.98-.26-10.77-5.05-11.03-11.03h1.87c.29,0,.52-.23.52-.52,0,0,0,0,0,0,0-.29-.23-.52-.52-.52h-1.87c.26-5.98,5.05-10.77,11.03-11.03ZM15,7.18c-4.31,0-7.82,3.51-7.82,7.82,0,2.24.95,4.27,2.47,5.7,0,0,.02.02.02.02,1.4,1.3,3.27,2.1,5.33,2.1s3.91-.79,5.3-2.07c.03-.02.06-.05.09-.08,1.5-1.43,2.44-3.44,2.44-5.66,0-4.31-3.51-7.82-7.82-7.82ZM15,8.21c3.75,0,6.79,3.03,6.79,6.78,0,1.59-.55,3.06-1.46,4.22-.46-1.68-1.7-3.04-3.3-3.67.87-.63,1.44-1.65,1.44-2.81,0-1.91-1.56-3.46-3.46-3.46s-3.46,1.56-3.46,3.46c0,1.15.57,2.18,1.44,2.81-1.6.63-2.84,1.99-3.3,3.67-.92-1.16-1.46-2.62-1.46-4.22,0-3.75,3.03-6.78,6.78-6.78ZM15,10.31c1.35,0,2.43,1.08,2.43,2.43s-1.08,2.42-2.43,2.42-2.42-1.08-2.42-2.42,1.08-2.43,2.42-2.43ZM15,16.2c2.3,0,4.18,1.7,4.46,3.92-1.19,1.04-2.75,1.66-4.46,1.66s-3.26-.63-4.45-1.66c.27-2.22,2.15-3.92,4.45-3.92Z"/>
</svg>