<?xml version="1.0" encoding="UTF-8"?>
<svg id="Layer_1" data-name="Layer 1" xmlns="http://www.w3.org/2000/svg" viewBox="0 0 30 30">
  <defs>
    <style>
      .cls-1 {
        fill: #d7d7d7;
      }
    </style>
  </defs>
  <path class="cls-1" d="M4.68,9.17c-.11-.2-.05-.45.15-.56.2-.11.45-.05.56.15l.62,1.07c.11.2.05.45-.15.56-.06.04-.13.05-.2.05-.14,0-.28-.07-.36-.21l-.62-1.07h0ZM2.69,12.84l-1.07-.62c-.2-.11-.45-.05-.56.15-.11.2-.05.45.15.56l1.07.62c.06.04.13.05.2.05.14,0,.28-.07.36-.21.11-.2.05-.45-.15-.56h0ZM12.67,27.51c0,.23-.18.41-.41.41h-.41v.38c0,.66-.54,1.2-1.2,1.2h-1.36c-.66,0-1.2-.54-1.2-1.2v-.38h-.41c-.23,0-.41-.18-.41-.41s.18-.41.41-.41h4.58c.23,0,.41.18.41.41h0ZM11.03,27.92h-2.12v.38c0,.21.17.38.38.38h1.36c.21,0,.38-.17.38-.38v-.38h0ZM16.02,16.2c0,2.04-.67,2.84-1.32,3.62-.35.42-.68.82-.94,1.44-.31.75-.66,1.89-.89,2.65-.09.3-.16.54-.22.69-.06.17-.21.28-.39.28h-4.58c-.18,0-.33-.11-.39-.28-.05-.16-.13-.4-.22-.69-.23-.76-.58-1.9-.89-2.65-.26-.62-.59-1.02-.94-1.44-.65-.78-1.32-1.58-1.32-3.62,0-3.34,2.71-6.05,6.05-6.05s6.05,2.71,6.05,6.05h0ZM8.69,16.79c0-.45-.37-.82-.81-.82s-.81.37-.81.82.37.81.81.81h.81v-.81ZM10.35,18.43h-.84v5.64h.84v-5.64ZM15.2,16.2c0-2.88-2.35-5.23-5.23-5.23s-5.23,2.35-5.23,5.23c0,1.74.52,2.37,1.13,3.09.36.43.76.92,1.07,1.65.32.78.68,1.95.92,2.72.04.14.09.28.12.39h.71v-5.64h-.81c-.9,0-1.64-.73-1.64-1.64s.73-1.64,1.64-1.64,1.64.73,1.64,1.64v.81h.84v-.81c0-.9.73-1.64,1.64-1.64s1.64.73,1.64,1.64-.73,1.64-1.64,1.64h-.81v5.64h.79c.04-.12.08-.25.12-.39.24-.77.6-1.94.92-2.72.31-.74.71-1.22,1.07-1.65.61-.72,1.13-1.35,1.13-3.09h0ZM11.98,17.61c.45,0,.82-.37.82-.81s-.37-.82-.82-.82-.81.37-.81.82v.81h.81ZM12.26,25.58h-4.58c-.23,0-.41.18-.41.41s.18.41.41.41h4.58c.23,0,.41-.18.41-.41s-.18-.41-.41-.41ZM8.1,9.5c.1.2.35.28.55.18.2-.1.28-.35.18-.55-.1-.65-.1-1.32,0-1.97l1.14-.15c.16-.02.3-.14.34-.3.12-.45.3-.87.53-1.28.08-.14.07-.32-.03-.45l-.7-.92c.39-.53.86-.99,1.39-1.39l.92.7c.13.1.31.11.45.03.4-.23.83-.41,1.28-.53.16-.04.28-.18.3-.34l.15-1.14c.65-.09,1.31-.09,1.96,0l.15,1.14c.02.16.14.3.3.34.45.12.87.3,1.28.53.14.08.32.07.45-.03l.92-.7c.53.39.99.86,1.39,1.39l-.7.92c-.1.13-.11.31-.03.45.23.4.41.83.53,1.28.04.16.18.28.34.3l1.14.15c.09.65.09,1.31,0,1.96l-1.14.15c-.16.02-.3.14-.34.3-.12.45-.3.87-.53,1.28-.08.14-.07.32.03.45l.7.92c-.39.53-.86.99-1.39,1.39l-.92-.7c-.13-.1-.31-.11-.45-.03-.4.23-.83.41-1.28.53-.16.04-.28.18-.3.34l-.15,1.16c-.1.2,0,.45.2.55.06.03.12.04.18.04.15,0,.3-.09.37-.24.04-.08.06-.16.07-.24l.12-.9c.33-.11.65-.24.96-.4l.72.55c.29.22.68.22.96,0,.6-.45,1.13-.98,1.57-1.57.22-.29.21-.68,0-.96l-.55-.72c.16-.31.29-.63.4-.96l.9-.12c.36-.05.63-.32.69-.68.11-.74.11-1.49,0-2.23-.05-.36-.33-.63-.69-.68l-.9-.12c-.11-.33-.24-.65-.4-.96l.55-.72c.22-.29.22-.68,0-.96-.45-.6-.98-1.13-1.57-1.57-.29-.22-.68-.21-.96,0l-.72.55c-.31-.16-.63-.29-.96-.4l-.12-.9c-.05-.36-.32-.63-.68-.69-.74-.11-1.49-.11-2.23,0-.36.05-.63.33-.68.69l-.12.9c-.33.11-.65.24-.96.4l-.72-.55c-.29-.22-.68-.22-.96,0-.6.45-1.13.98-1.57,1.57-.22.29-.21.68,0,.96l.55.72c-.16.31-.29.63-.4.96l-.9.12c-.36.05-.63.32-.69.68-.11.74-.11,1.49,0,2.23.01.09.04.17.08.25h0ZM15.58,11.81c-2.02,0-3.67-1.65-3.67-3.67s1.65-3.67,3.67-3.67,3.67,1.65,3.67,3.67-1.65,3.67-3.67,3.67ZM18.43,8.14c0-1.57-1.28-2.85-2.85-2.85s-2.85,1.28-2.85,2.85,1.28,2.85,2.85,2.85,2.85-1.28,2.85-2.85ZM28.84,12.91l-8.2,14.2c-.04.06-.09.11-.15.15l-3.78,2.18c-.06.04-.13.05-.2.05s-.14-.02-.2-.05c-.13-.07-.2-.21-.2-.36v-4.36c0-.07.02-.14.05-.2l8.2-14.2c.15-.26.39-.44.68-.52.29-.08.59-.04.85.11l2.56,1.48c.26.15.44.39.52.68.08.29.04.59-.11.85h0ZM19.47,26.91l-2.54-1.47v2.94l2.54-1.47h0ZM26.71,14.96l-3.06-1.77-6.57,11.39,3.06,1.77,6.57-11.39ZM28.16,12.28c-.02-.08-.07-.14-.14-.18l-2.56-1.48c-.07-.04-.15-.05-.22-.03s-.14.07-.18.14l-1.01,1.75,3.06,1.77,1.01-1.75c.04-.07.05-.15.03-.22h0ZM19.47,23.96c.06.04.13.05.2.05.14,0,.28-.07.36-.21l4.36-7.55c.11-.2.05-.45-.15-.56-.2-.11-.45-.05-.56.15l-4.36,7.55c-.11.2-.05.45.15.56h0Z"/>
</svg>