<?xml version="1.0" encoding="UTF-8"?>
<svg id="Layer_1" data-name="Layer 1" xmlns="http://www.w3.org/2000/svg" viewBox="0 0 30 30">
  <defs>
    <style>
      .cls-1 {
        fill: #d7d7d7;
      }
    </style>
  </defs>
  <path class="cls-1" d="M29.13,28.77h-1.38v-2.06c0-.68-.51-1.23-1.16-1.32v-1.06c0-.65-.46-1.19-1.07-1.31-.31-.93-1.45-4.6-1.51-8.63h.95c.2,0,.37-.16.37-.37v-1.56c0-.1-.05-.21-.13-.28-.01-.01-1.39-1.24-1.55-3.05h.79c.2,0,.37-.16.37-.37s-.16-.37-.37-.37h-.61l.86-1.93c.19-.42.15-.89-.1-1.28-.25-.38-.67-.61-1.12-.61h-.55v-.46h.82c.2,0,.37-.16.37-.37v-1.71c0-.2-.16-.37-.37-.37h-.82v-.82c0-.2-.16-.37-.37-.37h-1.71c-.2,0-.37.16-.37.37v.82h-.82c-.2,0-.37.16-.37.37v1.71c0,.2.16.37.37.37h.82v.46h-.55c-.46,0-.88.23-1.12.61-.25.38-.29.86-.1,1.28l.86,1.93h-.61c-.2,0-.37.16-.37.37s.16.37.37.37h.79c-.17,1.82-1.54,3.04-1.55,3.05-.08.07-.13.17-.13.28v1.56c0,.2.16.37.37.37h.95c-.07,4.03-1.2,7.7-1.51,8.63-.61.13-1.07.67-1.07,1.31v1.06c-.65.09-1.16.65-1.16,1.32v2.06h-2.43v-1.82c0-.62-.45-1.12-1.04-1.22v-.92c0-.59-.42-1.08-.97-1.21-.27-.8-1.28-4.1-1.35-7.69.66-.02,1.19-.56,1.19-1.22,0-.18-.04-.34-.1-.49h.01c.67,0,1.22-.55,1.22-1.22s-.52-1.19-1.16-1.22c.1-.32.15-.65.15-.99,0-1.89-1.54-3.43-3.43-3.43s-3.43,1.54-3.43,3.43c0,.34.05.67.15.99-.65.03-1.16.56-1.16,1.22s.55,1.22,1.22,1.22h.01c-.07.15-.1.32-.1.49,0,.66.53,1.2,1.19,1.22-.07,3.6-1.08,6.89-1.35,7.69-.55.13-.97.62-.97,1.21v.92c-.59.1-1.04.61-1.04,1.22v1.82H.87c-.2,0-.37.16-.37.37s.16.37.37.37h28.27c.2,0,.37-.16.37-.37s-.16-.37-.37-.37h0ZM20.84,3.4h-.82v-.98h.82c.2,0,.37-.16.37-.37v-.82h.98v.82c0,.2.16.37.37.37h.82v.98h-.82c-.2,0-.37.16-.37.37v.82h-.98v-.82c0-.2-.16-.37-.37-.37ZM19.41,5.6c.11-.18.3-.28.51-.28h3.54c.21,0,.4.1.51.28.11.18.13.39.05.58l-.99,2.22h-2.68l-.99-2.22c-.09-.19-.07-.4.05-.58h0ZM18.79,12.62c.39-.38,1.54-1.66,1.68-3.48h2.45c.14,1.82,1.29,3.1,1.68,3.48v1.03h-5.82v-1.03ZM23.29,14.38c.06,3.83,1.06,7.34,1.46,8.61h-6.11c.4-1.26,1.4-4.78,1.46-8.61h3.18ZM9.12,15.92c.06,3.39.94,6.52,1.3,7.66h-5.39c.36-1.14,1.24-4.27,1.3-7.66h2.78ZM7.72,8.07c1.49,0,2.7,1.21,2.7,2.7,0,.34-.06.67-.19.99h-5.02c-.13-.32-.19-.65-.19-.99,0-1.49,1.21-2.7,2.7-2.7h0ZM5.14,14.69c0-.27.22-.49.49-.49h.75c.2,0,.37-.16.37-.37s-.16-.37-.37-.37h-1.88c-.27,0-.49-.22-.49-.49s.22-.49.49-.49h6.44c.27,0,.49.22.49.49s-.22.49-.49.49h-2.73c-.2,0-.37.16-.37.37s.16.37.37.37h1.6c.27,0,.49.22.49.49s-.22.49-.49.49h-4.18c-.27,0-.49-.22-.49-.49ZM4.52,24.3h6.4c.28,0,.51.23.51.51v.9h-7.42v-.9c0-.28.23-.51.51-.51h0ZM2.97,28.77v-1.82c0-.28.23-.51.51-.51h8.48c.28,0,.51.23.51.51v1.82H2.97ZM16.37,28.77v-2.06c0-.34.27-.61.61-.61h1.3c.2,0,.37-.16.37-.37s-.16-.37-.37-.37h-.75v-1.04c0-.34.27-.61.61-.61h7.12c.34,0,.61.27.61.61v1.04h-5.8c-.2,0-.37.16-.37.37s.16.37.37.37h6.35c.34,0,.61.27.61.61v2.06h-10.66Z"/>
</svg>