<?xml version="1.0" encoding="UTF-8"?>
<svg id="Layer_1" data-name="Layer 1" xmlns="http://www.w3.org/2000/svg" viewBox="0 0 30 30">
  <defs>
    <style>
      .cls-1 {
        fill: #d7d7d7;
      }
    </style>
  </defs>
  <path class="cls-1" d="M29.5,29.15H.5V.85h29v28.29ZM1.21,28.44h27.59V6.29H1.21v22.15ZM8.28,24.9c.19,0,.35.16.35.35s-.16.35-.35.35H3.68c-.19,0-.35-.16-.35-.35s.16-.35.35-.35h4.6ZM17.48,24.9c.19,0,.35.16.35.35s-.16.35-.35.35h-4.6c-.19,0-.35-.16-.35-.35s.16-.35.35-.35h4.6ZM26.67,24.9c.19,0,.35.16.35.35s-.16.35-.35.35h-4.6c-.19,0-.35-.16-.35-.35s.16-.35.35-.35h4.6ZM8.28,22.78c.19,0,.35.16.35.35s-.16.35-.35.35H3.68c-.19,0-.35-.16-.35-.35s.16-.35.35-.35h4.6ZM17.48,22.78c.19,0,.35.16.35.35s-.16.35-.35.35h-4.6c-.19,0-.35-.16-.35-.35s.16-.35.35-.35h4.6ZM26.67,22.78c.19,0,.35.16.35.35s-.16.35-.35.35h-4.6c-.19,0-.35-.16-.35-.35s.16-.35.35-.35h4.6ZM8.63,21.37H3.33v-5.3h5.3v5.3ZM17.83,21.37h-5.3v-5.3h5.3v5.3ZM27.02,21.37h-5.3v-5.3h5.3v5.3ZM4.54,20.66h2.89l-1.45-1.45-1.45,1.45ZM13.73,20.66h2.89l-1.45-1.45-1.45,1.45ZM22.93,20.66h2.89l-1.45-1.45-1.45,1.45ZM4.04,20.16l1.45-1.45-1.45-1.45v2.89ZM6.48,18.71l1.45,1.45v-2.89l-1.45,1.45ZM13.23,20.16l1.45-1.45-1.45-1.45v2.89ZM15.68,18.71l1.45,1.45v-2.89l-1.45,1.45ZM22.43,20.16l1.45-1.45-1.45-1.45v2.89ZM24.87,18.71l1.45,1.45v-2.89l-1.45,1.45ZM5.98,18.21l1.45-1.45h-2.89l1.45,1.45ZM15.18,18.21l1.45-1.45h-2.89l1.45,1.45ZM24.37,18.21l1.45-1.45h-2.89l1.45,1.45ZM27.02,14.65H3.33v-5.66h23.7v5.66ZM4.04,13.94h.73l8.89-2.12-8.89-2.12h-.73v4.24ZM7.81,13.94h14.73l-7.36-1.76-7.36,1.76ZM16.7,11.82l8.89,2.12h.73v-4.24h-.73l-8.89,2.12ZM15.18,11.45l7.36-1.76H7.81l7.36,1.76ZM1.21,5.58h27.59V1.56H1.21v4.02ZM4.39,2.27c.59,0,1.06.48,1.06,1.06s-.48,1.06-1.06,1.06-1.06-.48-1.06-1.06.48-1.06,1.06-1.06ZM7.22,2.27c.59,0,1.06.48,1.06,1.06s-.48,1.06-1.06,1.06-1.06-.48-1.06-1.06.48-1.06,1.06-1.06ZM10.05,2.27c.59,0,1.06.48,1.06,1.06s-.48,1.06-1.06,1.06-1.06-.48-1.06-1.06.48-1.06,1.06-1.06ZM4.39,2.98c-.19,0-.35.16-.35.35s.16.35.35.35.35-.16.35-.35-.16-.35-.35-.35ZM7.22,2.98c-.19,0-.35.16-.35.35s.16.35.35.35.35-.16.35-.35-.16-.35-.35-.35ZM10.05,2.98c-.19,0-.35.16-.35.35s.16.35.35.35.35-.16.35-.35-.16-.35-.35-.35ZM26.67,2.98c.19,0,.35.16.35.35s-.16.35-.35.35h-5.66c-.19,0-.35-.16-.35-.35s.16-.35.35-.35h5.66Z"/>
</svg>