<?xml version="1.0" encoding="UTF-8"?>
<svg id="Layer_1" data-name="Layer 1" xmlns="http://www.w3.org/2000/svg" viewBox="0 0 30 30">
  <defs>
    <style>
      .cls-1 {
        fill: #d7d7d7;
      }
    </style>
  </defs>
  <path class="cls-1" d="M22.59,7.7c-1.97,0-3.57,1.6-3.57,3.57,0,1.97,1.6,3.57,3.57,3.57,1.97,0,3.57-1.6,3.57-3.57,0-1.97-1.6-3.57-3.57-3.57ZM22.59,14.03c-1.52,0-2.76-1.24-2.76-2.76s1.24-2.76,2.76-2.76c1.52,0,2.76,1.24,2.76,2.76,0,1.52-1.24,2.76-2.76,2.76h0ZM29.31,9.95l-1.37-.19c-.12-.42-.29-.82-.5-1.2l.84-1.1c.12-.16.11-.39-.04-.53l-1.3-1.3c-.14-.14-.37-.16-.53-.04l-1.1.84c-.38-.21-.78-.38-1.2-.5l-.19-1.37c-.03-.2-.2-.35-.4-.35h-1.84c-.2,0-.37.15-.4.35l-.19,1.37c-.42.12-.82.29-1.2.5l-1.1-.84c-.16-.12-.39-.11-.53.04l-1.3,1.3c-.14.14-.16.37-.04.53l.84,1.1c-.21.38-.38.78-.5,1.2l-1.37.19c-.2.03-.35.2-.35.4v1.84c0,.2.15.38.35.4l1.37.19c.12.42.29.82.5,1.2l-.84,1.1c-.12.16-.11.39.04.53l1.3,1.3c.14.14.37.16.53.04l1.1-.84c.38.21.78.38,1.2.5l.19,1.37c.03.2.2.35.4.35h1.84c.2,0,.38-.15.4-.35l.19-1.37c.42-.12.82-.29,1.2-.5l1.1.84c.16.12.39.11.53-.04l1.3-1.3c.14-.14.16-.37.04-.53l-.84-1.1c.21-.38.38-.78.5-1.2l1.37-.19c.2-.03.35-.2.35-.4v-1.84c0-.2-.15-.38-.35-.4ZM28.85,11.84l-1.29.18c-.17.02-.3.15-.34.31-.12.52-.32,1.02-.61,1.47-.09.14-.08.33.02.46l.79,1.04-.8.8-1.04-.79c-.14-.1-.32-.11-.46-.02-.45.29-.95.49-1.47.61-.17.04-.29.17-.31.34l-.18,1.29h-1.13l-.18-1.29c-.02-.17-.15-.3-.31-.34-.52-.12-1.02-.32-1.47-.61-.14-.09-.33-.08-.46.02l-1.04.79-.8-.8.79-1.04c.1-.14.11-.32.02-.46-.29-.45-.49-.95-.61-1.47-.04-.17-.17-.29-.34-.31l-1.29-.18v-1.13l1.29-.18c.17-.02.3-.15.34-.31.12-.52.32-1.02.61-1.47.09-.14.08-.33-.02-.46l-.79-1.04.8-.8,1.04.79c.13.1.32.11.46.02.45-.29.95-.49,1.47-.61.17-.04.29-.17.31-.34l.18-1.29h1.13l.18,1.29c.02.17.15.3.31.34.52.12,1.02.32,1.47.61.14.09.33.08.46-.02l1.04-.79.8.8-.79,1.04c-.1.13-.11.32-.02.46.29.45.49.95.61,1.47.04.17.17.29.34.31l1.29.18v1.13ZM9.04,14.66c-2.49,0-4.51,2.02-4.51,4.51,0,1.81.63,2.41,1.19,2.93.53.5,1.03.97,1.08,2.77-.34.27-.54.69-.53,1.12-.04.64.41,1.21,1.04,1.33l.16.67c.22.92.81,1.47,1.57,1.47s1.35-.55,1.57-1.47l.16-.67c.63-.12,1.08-.69,1.04-1.33,0-.44-.19-.85-.53-1.12.04-1.8.54-2.27,1.08-2.77.56-.53,1.19-1.12,1.19-2.93,0-2.49-2.02-4.51-4.52-4.51h0ZM9.04,28.55c-.42,0-.6-.48-.67-.76l-.11-.44h1.55l-.11.44c-.07.29-.25.76-.67.76h0ZM10.66,26.41h-3.24c-.09,0-.22-.16-.22-.41s.13-.41.22-.41h3.24c.09,0,.22.17.22.41s-.13.41-.22.41h0ZM11.72,21.43c-.6.56-1.27,1.2-1.36,3.23h-2.64c-.09-2.04-.76-2.67-1.36-3.23-.5-.47-.9-.85-.9-2.25-.02-1.98,1.57-3.6,3.55-3.62s3.6,1.57,3.62,3.55c0,.02,0,.05,0,.07,0,1.41-.4,1.78-.9,2.25h0ZM12.25,19.21c0,.26-.2.47-.45.48-.26,0-.47-.2-.48-.45,0,0,0-.02,0-.02,0-.99-.64-1.87-1.58-2.17-.25-.07-.39-.33-.31-.58.07-.25.33-.39.58-.31,0,0,.01,0,.02,0,1.33.43,2.22,1.66,2.22,3.05h0ZM9.26,10.33c.26,0,.46.21.46.46h0v2.64c0,.26-.2.47-.45.48-.26,0-.47-.2-.48-.45,0,0,0-.02,0-.02v-2.64c0-.26.21-.46.46-.46ZM15.47,12.98c.18.18.18.48,0,.66h0s-1.87,1.87-1.87,1.87c-.19.17-.48.16-.66-.03-.16-.18-.16-.45,0-.63l1.87-1.87c.18-.18.47-.18.66,0ZM14.74,18.97h2.64c.26,0,.46.22.45.48,0,.25-.21.45-.45.45h-2.64c-.26,0-.46-.22-.45-.48,0-.25.21-.45.45-.45ZM2.7,13.64c-.18-.18-.18-.48,0-.66s.48-.18.66,0h0l1.87,1.87c.18.18.18.48,0,.66s-.48.18-.66,0l-1.87-1.87ZM3.89,19.43c0,.26-.21.46-.46.46H.79c-.26,0-.46-.22-.45-.48,0-.25.21-.45.45-.45h2.64c.26,0,.46.21.46.46,0,0,0,0,0,0h0ZM3.58,11.53C5.06,5.15,11.39,1.14,17.79,2.53l-.82-1.42c-.11-.19-.05-.44.15-.56.19-.11.44-.05.56.15,0,0,0,0,0,0l1.3,2.26h0s0,.02,0,.03,0,.01,0,.02,0,.01,0,.02,0,.01,0,.02,0,.01,0,.02,0,.01,0,.02,0,.01,0,.02,0,.01,0,.02,0,.01,0,.02v.06s0,.01,0,.02,0,.01,0,.02,0,.01,0,.02,0,.01,0,.02h0s0,.01,0,.02,0,.01,0,.02,0,.01,0,.02,0,.01,0,.02,0,.01,0,.02,0,.01-.01.02,0,.01-.01.02,0,.01-.01.02h-.01s0,.03-.01.03h-.01s-.02.03-.02.03h-.02s-.02.02-.02.02h-.02s0,.02-.01.02l-2.26,1.3c-.2.11-.44.04-.55-.15-.11-.19-.04-.44.15-.55l1.39-.8c-.76-.16-1.54-.24-2.31-.24-5.2-.02-9.72,3.57-10.87,8.64-.04.18-.21.32-.4.32-.03,0-.06,0-.09-.01-.22-.05-.35-.27-.31-.49h0ZM28.49,18.47c-1.48,6.38-7.81,10.39-14.21,9l.82,1.42c.11.19.05.44-.15.56-.19.11-.44.05-.56-.15,0,0,0,0,0,0l-1.3-2.26h0s0-.02,0-.02,0-.01,0-.02v-.02s-.01-.01-.01-.02,0-.01,0-.02,0-.01,0-.02,0-.01,0-.02,0-.01,0-.02v-.08s0-.01,0-.02,0-.01,0-.02,0-.01,0-.02,0-.01,0-.02h0s0-.01,0-.02c0,0,0-.01,0-.02s0-.01,0-.02c0,0,0-.01,0-.02,0,0,0-.01,0-.02v-.02s.02-.02.02-.02v-.02s.02-.02.02-.02h.01s.01-.03.01-.03c0,0,0,0,.01-.01s.01,0,.02-.01h.01s.02-.02.02-.02h0s2.26-1.31,2.26-1.31c.2-.1.45-.01.54.19.09.18.03.4-.14.52l-1.39.8c.76.16,1.54.24,2.31.24,5.2.02,9.72-3.57,10.87-8.64.05-.22.26-.36.48-.31.22.05.36.26.31.48,0,0,0,0,0,.01h0Z"/>
</svg>