<?xml version="1.0" encoding="UTF-8"?>
<svg id="Layer_1" data-name="Layer 1" xmlns="http://www.w3.org/2000/svg" viewBox="0 0 30 30">
  <defs>
    <style>
      .cls-1 {
        fill: #d7d7d7;
      }
    </style>
  </defs>
  <path class="cls-1" d="M15.01.94c-.26,0-.47.21-.47.47v.8s0,0,0,0c0,.26.21.47.47.47.12,0,.24-.05.33-.14.09-.09.14-.21.14-.33v-.8s0,0,0,0c0-.26-.21-.47-.47-.47h0ZM14.99,3.36c-.26,0-.47.21-.47.47v1.06L3.81,10.44s0,0-.01,0c-.02,0-.03.02-.04.03-.02.01-.03.03-.05.04,0,0-.01,0-.02.02,0,0-.01.01-.02.02-.02.02-.04.05-.05.07,0,0,0,0,0,.01,0,0,0,0,0,0,0,0,0,0,0,0-.02.04-.03.08-.04.13,0,0,0,0,0,0v.02s0,.04,0,.06v11.77l-1.24.64c-.23.12-.32.4-.2.63.12.23.4.32.63.2l1.28-.66,10.76,5.57h0s.09.04.13.04c0,0,.01,0,.02,0,.02,0,.04,0,.06,0,.08,0,.15-.02.22-.05l10.76-5.57,1.28.66c.23.12.51.03.63-.2.12-.23.03-.51-.2-.63l-1.24-.64v-11.77s0-.01,0-.02c0-.02,0-.04,0-.05h0s0-.01,0-.02c0-.01,0-.02,0-.03,0,0,0,0,0,0,0,0,0-.02,0-.03,0,0,0-.02,0-.03,0,0,0-.01,0-.02,0,0,0-.02-.01-.02,0,0,0,0,0,0h0s-.03-.05-.04-.07c0,0,0,0,0,0-.01-.01-.02-.03-.04-.04,0,0,0,0,0,0-.01-.01-.02-.02-.03-.03,0,0,0,0,0,0-.02-.02-.05-.03-.07-.05l-10.73-5.56v-1.05c0-.12-.05-.24-.14-.33-.09-.09-.21-.14-.33-.14h0ZM15.46,5.94l9.49,4.92-9.95,5.16-9.95-5.16,9.47-4.91v7.33s0,0,0,0c0,.12.05.24.14.33.09.09.21.14.33.14s.24-.05.33-.14c.09-.09.14-.21.14-.33v-7.34ZM4.5,11.62l10.04,5.2v11l-9.48-4.91,4.68-2.42s0,0,0,0l1.49-.77h0c.23-.12.32-.4.2-.63-.12-.23-.4-.32-.63-.2l-5.59,2.9-.71.37v-10.52ZM25.5,11.62v10.52l-4.8-2.49-1.5-.78h0c-.23-.12-.51-.03-.63.2-.12.23-.03.51.2.63l1.49.77h0l4.68,2.42-9.49,4.91v-11s10.03-5.2,10.03-5.2ZM28.83,23.92h0c-.18,0-.34.1-.42.25-.12.23-.03.51.2.63l.71.37h0c.23.12.51.03.63-.2.12-.23.03-.51-.2-.63l-.71-.37c-.06-.03-.14-.05-.21-.05h0ZM1.15,23.92h0c-.07,0-.14.02-.2.05l-.71.37c-.23.12-.32.4-.2.63.12.23.4.32.63.2l.71-.37c.23-.12.32-.4.2-.63-.06-.11-.15-.19-.27-.23-.05-.02-.11-.02-.16-.02h0Z"/>
</svg>