<?xml version="1.0" encoding="UTF-8"?>
<svg id="Layer_1" data-name="Layer 1" xmlns="http://www.w3.org/2000/svg" viewBox="0 0 30 30">
  <defs>
    <style>
      .cls-1 {
        fill: #d7d7d7;
        fill-rule: evenodd;
      }
    </style>
  </defs>
  <path class="cls-1" d="M10.88,7.07h6.97l4.56-4.55c.84-.84,2.63.1,2.89,1.49.08.43,0,.83-.29,1.11l-1.95,1.95h4.14c.72,0,1.31.59,1.31,1.31v4.12l.97-.97c.19-.2.52-.06.52.21v11.65c0,.17-.14.31-.31.31h-11.65c-.27,0-.41-.33-.22-.52l.97-.97h-7.55c-.12.37-.27.71-.46,1.05-.07.14-.24.19-.38.14h0c-1.08-.41-2.16.66-1.74,1.74.06.15-.01.32-.16.39-.23.12-.37.19-.62.29-.21.08-.42.16-.63.22-.15.04-.31-.03-.37-.18-.11-.23-.28-.43-.49-.57h0c-.69-.45-1.63-.17-1.97.58-.06.14-.22.21-.37.17-.44-.13-.86-.3-1.26-.52-.14-.07-.19-.24-.14-.38h0c.41-1.08-.66-2.16-1.74-1.74-.15.06-.32-.01-.39-.16-.11-.2-.2-.4-.29-.6-.09-.21-.16-.42-.23-.65-.05-.15.03-.31.18-.37.47-.2.79-.7.79-1.23s-.31-1.02-.8-1.23c-.14-.06-.21-.22-.17-.37.13-.44.3-.86.52-1.26.07-.14.24-.19.38-.14h0c1.08.41,2.16-.66,1.74-1.74-.06-.15.01-.32.16-.39.19-.11.39-.2.6-.29.21-.09.42-.16.65-.23.15-.04.31.04.37.18.11.23.28.43.49.57h0c.13.08.27.14.43.18V5.41c0-1.24,1.01-2.24,2.25-2.24h2.98c.17,0,.31.14.31.31v3.6ZM5.66,17.13c-1.78,0-3.22,1.44-3.22,3.22s1.44,3.22,3.22,3.22,3.22-1.44,3.22-3.22-1.44-3.22-3.22-3.22ZM7.51,18.51c-1.02-1.02-2.67-1.02-3.69,0-1.02,1.02-1.02,2.67,0,3.69,1.02,1.02,2.67,1.02,3.69,0s1.02-2.67,0-3.69ZM11.08,21.61h8.32l8.49-8.49v-4.73c0-.38-.31-.69-.69-.69h-4.75l-6.23,6.23s-.09.07-.14.08l-.76.2h7.48c.4,0,.4.61,0,.61h-11.3c-.4,0-.4-.61,0-.61h1.29l.75-2.75c.01-.05.04-.1.08-.14l3.62-3.62H7.6c-.64,0-1.22-.27-1.63-.71v8.71c.41-.09.75-.38.93-.76.06-.14.22-.21.37-.17.44.13.86.3,1.26.52.14.07.19.24.14.38h0c-.41,1.08.66,2.16,1.74,1.74.15-.06.32.01.39.16.11.2.2.4.29.6.09.21.16.42.23.65.04.15-.03.31-.18.37-.23.11-.43.28-.57.49h0c-.44.67-.19,1.58.52,1.94h0ZM.81,22.41c.05.12.1.23.15.34,1.4-.32,2.67.94,2.35,2.35l.69.29c.58-.91,1.8-1.2,2.72-.6h0c.24.16.44.36.6.6l.69-.29c-.32-1.4.94-2.67,2.35-2.35l.29-.69c-.92-.58-1.2-1.81-.6-2.72h0c.15-.23.37-.45.6-.6l-.29-.69c-1.4.32-2.67-.94-2.35-2.35l-.69-.29c-.58.92-1.81,1.2-2.72.6h0c-.23-.15-.45-.37-.6-.6-.12.04-.23.08-.35.13l-.34.15c.32,1.4-.94,2.67-2.35,2.35l-.29.69c1.21.77,1.23,2.55,0,3.32.04.12.09.24.13.35h0ZM15.03,10.77l1.74,1.74,6.03-6.03-1.74-1.74-6.03,6.03ZM16.33,12.94l-1.74-1.74-.48.48-.65,2.38,2.38-.65.48-.48ZM21.49,4.3l1.74,1.74,1.35-1.35c.44-.44-.22-1.68-1.17-1.86-.23-.04-.44,0-.57.12l-1.35,1.35ZM5.97,5.41c0,.93.73,1.66,1.63,1.66h2.67v-3.29h-2.67c-.9,0-1.63.73-1.63,1.63h0ZM29.39,14.37h-.26c-.4,0-.4-.61,0-.61h.26v-1.27l-10.61,10.61h10.61v-1.7h-.26c-.4,0-.4-.61,0-.61h.26v-.56h-.55c-.4,0-.4-.61,0-.61h.55v-.56h-.26c-.4,0-.4-.61,0-.61h.26v-.56h-.55c-.4,0-.4-.61,0-.61h.55v-.56h-.26c-.4,0-.4-.61,0-.61h.26v-.56h-.55c-.4,0-.4-.61,0-.61h.55v-.56ZM27.29,17.24l-3.76,3.76h3.76v-3.76ZM22.58,21.09c-.19.19-.05.52.22.52h4.8c.17,0,.31-.14.31-.31v-4.8c0-.27-.33-.41-.53-.21l-4.8,4.8ZM27.78,27.19v-1.18c0-.4.61-.4.61,0v1.18h1v-1.99H12.15v1.99h.99v-.71c0-.4.61-.4.61,0v.71h1.48v-1.18c0-.4.61-.4.61,0v1.18h1.48v-.71c0-.4.61-.4.61,0v.71h1.48v-1.18c0-.4.61-.4.61,0v1.18h1.48v-.71c0-.4.61-.4.61,0v.71h1.48v-1.18c0-.4.61-.4.61,0v1.18h1.48v-.71c0-.4.61-.4.61,0v.71h1.48ZM11.85,24.59c-.17,0-.31.14-.31.31v2.6c0,.17.14.31.31.31h17.85c.17,0,.31-.14.31-.31v-2.6c0-.17-.14-.31-.31-.31H11.85Z"/>
</svg>