<?xml version="1.0" encoding="UTF-8"?>
<svg id="Layer_1" data-name="Layer 1" xmlns="http://www.w3.org/2000/svg" viewBox="0 0 30 30">
  <defs>
    <style>
      .cls-1 {
        fill: #d7d7d7;
      }
    </style>
  </defs>
  <path class="cls-1" d="M15,.97c-1.01,0-1.87.71-2.09,1.66H4.61v-1.06c0-.28-.22-.5-.5-.5H1c-.28,0-.5.23-.5.5v3.12c0,.27.22.5.5.5h3.12c.27,0,.5-.22.5-.5v-1.06h6c-3.4,1.63-5.75,5.1-5.75,9.14v.83c-.95.23-1.66,1.08-1.66,2.09,0,1.19.98,2.16,2.16,2.16s2.16-.98,2.16-2.16c0-1.02-.71-1.87-1.66-2.09v-.83c0-4.24,2.85-7.78,6.75-8.83l.36-.09c.3.84,1.09,1.45,2.03,1.45s1.73-.61,2.03-1.45l.35.09c3.9,1.04,6.76,4.58,6.76,8.83v.83c-.95.23-1.66,1.08-1.66,2.09,0,1.19.97,2.16,2.16,2.16s2.16-.98,2.16-2.16c0-1.02-.71-1.87-1.66-2.09v-.83c0-4.03-2.34-7.5-5.75-9.14h6v1.06c0,.28.22.5.5.5,0,0,0,0,0,0h3.11c.28,0,.5-.22.5-.5,0,0,0,0,0,0V1.58c0-.28-.22-.5-.5-.5,0,0,0,0,0,0h-3.11c-.28,0-.5.22-.5.5,0,0,0,0,0,0v1.06h-8.29c-.23-.95-1.08-1.66-2.1-1.66ZM15,1.97c.65,0,1.16.52,1.16,1.16s-.52,1.16-1.16,1.16-1.16-.51-1.16-1.16.51-1.16,1.16-1.16ZM1.5,2.08h2.12v1.01s0,.05,0,.08v1.02H1.5v-2.11ZM26.39,2.08h2.11v2.11h-2.11v-1.02s0-.04,0-.06v-1.03ZM15,7.91s-.03,0-.05,0c-.17.02-.33.12-.4.28l-5.91,11.81c-.08.15-.07.34.02.48l2.59,4.24h-.68c-.28,0-.5.23-.5.5v3.29c0,.28.22.5.5.5h8.86c.28,0,.5-.22.5-.5,0,0,0,0,0,0v-3.29c0-.28-.22-.5-.5-.5,0,0,0,0,0,0h-.68l2.59-4.24c.09-.15.1-.33.02-.48l-5.91-11.81c-.08-.17-.25-.28-.44-.28h0ZM14.5,10.53v6.84c-.81.22-1.42.97-1.42,1.85,0,1.06.86,1.92,1.92,1.92s1.92-.87,1.92-1.92c0-.88-.61-1.62-1.42-1.85v-6.84l4.84,9.67-2.76,4.53h-5.16l-2.76-4.53,4.84-9.68ZM5.36,14.54c.65,0,1.16.51,1.16,1.16s-.51,1.16-1.16,1.16-1.16-.52-1.16-1.16.52-1.16,1.16-1.16ZM24.64,14.54c.65,0,1.16.51,1.16,1.16s-.52,1.16-1.16,1.16-1.16-.52-1.16-1.16.52-1.16,1.16-1.16ZM15,18.3c.52,0,.92.41.92.92s-.41.92-.92.92-.92-.41-.92-.92.4-.92.92-.92ZM11.07,25.73h7.86v2.3h-7.86v-2.3Z"/>
</svg>