<?xml version="1.0" encoding="UTF-8"?>
<svg id="Layer_1" data-name="Layer 1" xmlns="http://www.w3.org/2000/svg" viewBox="0 0 30 30">
  <defs>
    <style>
      .cls-1 {
        fill: #d7d7d7;
      }
    </style>
  </defs>
  <path class="cls-1" d="M26.37,4.52c.16,0,.3-.13.3-.3v-1.8c0-.16-.13-.3-.3-.3h-8.95v-1.12c0-.56-.45-1.01-1.01-1.01h-2.84c-.56,0-1.01.45-1.01,1.01v1.12H3.63c-.16,0-.3.13-.3.3v1.8c0,.16.13.3.3.3h1.18v12h-1.18c-.16,0-.3.13-.3.3v1.8c0,.16.13.3.3.3h5.41l-2.08,7.9c-.16.6.2,1.22.8,1.37.1.03.19.04.29.04.5,0,.95-.33,1.09-.84l2.24-8.47h2.51v10.11c0,.54.44.98.98.98h.29c.54,0,.98-.44.98-.98v-10.11h2.51l2.24,8.47c.08.29.26.53.52.69.17.1.37.15.56.15.1,0,.19-.01.29-.04.6-.16.96-.77.8-1.37l-2.09-7.9h5.41c.16,0,.3-.13.3-.3v-1.8c0-.16-.13-.3-.3-.3h-1.18V4.52s1.18,0,1.18,0ZM13.17,1.01c0-.23.19-.42.42-.42h2.84c.23,0,.42.19.42.42v1.12h-3.67v-1.12ZM3.92,2.72h22.15v1.21H3.92s0-1.21,0-1.21ZM8.55,27.24c-.08.28-.37.45-.65.38-.28-.08-.45-.37-.38-.65l2.12-8.05h1.1l-2.2,8.32h0ZM15.53,29.02c0,.21-.17.39-.39.39h-.29c-.21,0-.39-.17-.39-.39v-10.11h1.06v10.11h0ZM22.48,26.97c.08.28-.1.57-.38.65-.14.04-.28.02-.4-.05-.12-.07-.21-.19-.25-.32l-2.2-8.32h1.1l2.13,8.05ZM26.08,18.32H3.92v-1.21h22.15v1.21ZM24.6,16.53H5.4V4.52h19.2v12h0ZM16.54,11.58h6.82c.16,0,.3-.13.3-.3v-5.69c0-.16-.13-.3-.3-.3h-6.82c-.16,0-.3.13-.3.3v5.69c0,.16.13.3.3.3ZM16.84,5.89h6.23v5.1h-6.23v-5.1ZM20.85,12.47c0,.16-.13.3-.3.3h-2.82c-.16,0-.3-.13-.3-.3s.13-.3.3-.3h2.82c.16,0,.3.13.3.3ZM22.47,12.47c0,.16-.13.3-.3.3h-.59c-.16,0-.3-.13-.3-.3s.13-.3.3-.3h.59c.16,0,.3.13.3.3ZM20.85,13.96c0,.16-.13.3-.3.3h-2.82c-.16,0-.3-.13-.3-.3s.13-.3.3-.3h2.82c.16,0,.3.13.3.3ZM22.47,13.96c0,.16-.13.3-.3.3h-.59c-.16,0-.3-.13-.3-.3s.13-.3.3-.3h.59c.16,0,.3.13.3.3ZM20.85,15.46c0,.16-.13.3-.3.3h-2.82c-.16,0-.3-.13-.3-.3s.13-.3.3-.3h2.82c.16,0,.3.13.3.3ZM22.47,15.46c0,.16-.13.3-.3.3h-.59c-.16,0-.3-.13-.3-.3s.13-.3.3-.3h.59c.16,0,.3.13.3.3ZM6.64,11.58h6.82c.16,0,.3-.13.3-.3v-5.69c0-.16-.13-.3-.3-.3h-6.82c-.16,0-.3.13-.3.3v5.69c0,.16.13.3.3.3ZM11.17,10.98l-.43-1.03.91-1.02,1.31,2.05h-1.79ZM10.13,10.03l.4.96h-3.38l1.87-2.95s0,0,0,0l1.11,1.99h0ZM13.17,5.89v4.32l-1.02-1.59c-.11-.19-.28-.3-.47-.31-.18,0-.36.08-.48.24l-.75.84-.91-1.63c-.11-.22-.3-.35-.5-.36-.2,0-.4.11-.51.31l-1.58,2.49v-4.32h6.23ZM10.95,12.47c0,.16-.13.3-.3.3h-2.82c-.16,0-.3-.13-.3-.3s.13-.3.3-.3h2.82c.16,0,.3.13.3.3ZM12.57,12.47c0,.16-.13.3-.3.3h-.59c-.16,0-.3-.13-.3-.3s.13-.3.3-.3h.59c.16,0,.3.13.3.3ZM10.95,13.96c0,.16-.13.3-.3.3h-2.82c-.16,0-.3-.13-.3-.3s.13-.3.3-.3h2.82c.16,0,.3.13.3.3ZM12.57,13.96c0,.16-.13.3-.3.3h-.59c-.16,0-.3-.13-.3-.3s.13-.3.3-.3h.59c.16,0,.3.13.3.3ZM10.95,15.46c0,.16-.13.3-.3.3h-2.82c-.16,0-.3-.13-.3-.3s.13-.3.3-.3h2.82c.16,0,.3.13.3.3ZM12.57,15.46c0,.16-.13.3-.3.3h-.59c-.16,0-.3-.13-.3-.3s.13-.3.3-.3h.59c.16,0,.3.13.3.3ZM21.47,8.18l-2.73-1.58c-.09-.05-.21-.05-.3,0s-.15.15-.15.26v3.16c0,.11.06.2.15.26.05.03.1.04.15.04s.1-.01.15-.04l2.73-1.58c.09-.05.15-.15.15-.26s-.06-.2-.15-.26h0ZM18.88,9.5v-2.13l1.85,1.07-1.85,1.07Z"/>
</svg>