<?xml version="1.0" encoding="UTF-8"?>
<svg id="Layer_1" data-name="Layer 1" xmlns="http://www.w3.org/2000/svg" viewBox="0 0 30 30">
  <defs>
    <style>
      .cls-1 {
        fill: #d7d7d7;
      }
    </style>
  </defs>
  <path class="cls-1" d="M26.89,6.79h-3.96V1.7c0-.94-.76-1.7-1.7-1.7h-12.45c-.94,0-1.7.76-1.7,1.7v5.09h-3.96c-.94,0-1.7.76-1.7,1.7v11.89c0,.94.76,1.7,1.7,1.7h3.4v3.96c0,.94.76,1.7,1.7,1.7h13.58c.94,0,1.7-.76,1.7-1.7v-3.96h3.4c.94,0,1.7-.76,1.7-1.7v-11.89c0-.94-.76-1.7-1.7-1.7ZM8.21,1.7c0-.31.25-.57.57-.57h12.45c.31,0,.57.25.57.57v9.06h-13.58V1.7ZM5.38,20.94v-2.83h1.13v2.83h-1.13ZM22.36,26.04c0,.31-.25.57-.57.57h-13.58c-.31,0-.57-.25-.57-.57v-7.92h1.13c0,.63.51,1.13,1.13,1.13s1.13-.51,1.13-1.13h4.09l-1.22,1.98-.68-1.13c-.16-.27-.51-.36-.78-.2-.08.05-.15.12-.2.2l-3.4,5.66c-.16.27-.06.62.21.77.09.05.18.08.28.08h11.32c.2,0,.39-.11.49-.29.1-.18.1-.39,0-.57l-4-6.5h5.21v7.92ZM16.13,24.34h-5.79l2.39-3.96h0l.66,1.1h0s.04.06.07.08c.03.03.05.06.08.08h0s.05,0,.07,0c.04.02.08.03.12.04h.12s.08,0,.12,0l.11-.03.07-.03h0s.06-.05.08-.07c.03-.03.06-.05.08-.08h0l1.75-2.83,3.56,5.71h-3.52ZM23.49,18.11h1.13v2.83h-1.13v-2.83ZM27.45,20.38c0,.31-.25.57-.57.57h-1.13v-3.4c0-.31-.25-.57-.57-.57H4.81c-.31,0-.57.25-.57.57v3.4h-1.13c-.31,0-.57-.25-.57-.57v-11.89c0-.31.25-.57.57-.57h3.96v3.4c0,.31.25.57.57.57h14.72c.31,0,.57-.25.57-.57v-3.4h3.96c.31,0,.57.25.57.57v11.89ZM26.32,9.62c0,.31-.25.57-.57.57h-1.13c-.31,0-.57-.25-.57-.57s.25-.57.57-.57h1.13c.31,0,.57.25.57.57ZM26.32,11.89c0,.31-.25.57-.57.57h-1.13c-.31,0-.57-.25-.57-.57s.25-.57.57-.57h1.13c.31,0,.57.25.57.57ZM19.53,6.23c0,.31-.25.57-.57.57h-7.92c-.31,0-.57-.25-.57-.57s.25-.57.57-.57h7.92c.31,0,.57.25.57.57ZM17.83,29.43c0,.31-.25.57-.57.57h-7.92c-.31,0-.57-.25-.57-.57s.25-.57.57-.57h7.92c.31,0,.57.25.57.57ZM21.23,29.43c0,.31-.25.57-.57.57h-1.13c-.31,0-.57-.25-.57-.57s.25-.57.57-.57h1.13c.31,0,.57.25.57.57ZM19.53,3.96c0,.31-.25.57-.57.57h-7.92c-.31,0-.57-.25-.57-.57s.25-.57.57-.57h7.92c.31,0,.57.25.57.57Z"/>
</svg>