<?xml version="1.0" encoding="UTF-8"?>
<svg id="Layer_1" data-name="Layer 1" xmlns="http://www.w3.org/2000/svg" viewBox="0 0 30 30">
  <defs>
    <style>
      .cls-1 {
        fill: #d7d7d7;
        fill-rule: evenodd;
      }
    </style>
  </defs>
  <path class="cls-1" d="M10.79,24.69h10.5c.28,0,.5-.22.5-.5v-7.13l-2.07,1.37c-.24.16-.56-.03-.55-.31l.2-3.36.05-.16,2.36-4.08V1.7c0-.28-.22-.5-.5-.5h-10.88v3.19c0,.98-.81,1.75-1.75,1.75h-3.19v4.65c.59-.17,1.22-.26,1.87-.26.73,0,1.44.12,2.1.33h9.16c.2,0,.35.16.35.35s-.16.35-.35.35h-7.64c1.07.67,1.93,1.62,2.49,2.75h5.15c.2,0,.35.16.35.35s-.16.35-.35.35h-4.85c.31.86.46,1.79.4,2.75h4.45c.2,0,.35.16.35.35s-.16.35-.35.35h-4.52c-.36,2.18-1.76,4.05-3.74,5.02v.95h.12c.15,0,.29.1.33.24h0ZM20.05,15.36c.54.31,1.08.62,1.62.93l-1.74,1.15.13-2.09ZM20.91,15.04l-.69-.4,5.5-9.53,1.99,1.15-5.5,9.53-.69-.4,2.75-4.77c.1-.17.04-.38-.13-.48s-.38-.04-.48.13l-2.75,4.77ZM22.5,16.59v7.6c0,.66-.54,1.21-1.2,1.21h-10.48v.93c0,.7-.57,1.27-1.27,1.27h-.54v.64c0,.7-.57,1.27-1.27,1.27h-.82c-.7,0-1.27-.57-1.27-1.27v-.64h-.53c-.7,0-1.27-.57-1.27-1.27v-1.52c0-.2.16-.35.35-.35h.12v-.95c-2.34-1.15-3.83-3.53-3.83-6.14,0-2.78,1.69-5.28,4.25-6.33v-5.25c0-.11.05-.2.12-.27L9.78.62c.07-.08.16-.12.27-.12h11.24c.66,0,1.2.54,1.2,1.2v7.57l3.54-6.13c.51-.89,1.65-1.19,2.54-.68.88.51,1.19,1.65.68,2.54l-.75,1.31-5.85,10.14-.11.12-.04.02h0ZM28.21,3.07c-.55-.31-1.25-.11-1.56.43l-.58,1,1.99,1.15.58-1c.32-.55.12-1.26-.43-1.58ZM5.21,20.32c.14-.14.36-.14.5,0,.14.14.14.36,0,.5l-.47.47c-.14.14-.36.14-.5,0-.14-.14-.14-.36,0-.5l.47-.47ZM4.68,18.34h-.66c-.2,0-.35.16-.35.35s.16.35.35.35h.66c.2,0,.35-.16.35-.35s-.16-.35-.35-.35ZM5.71,16.57c.14.14.14.36,0,.5-.14.14-.36.14-.5,0l-.47-.47c-.14-.14-.14-.36,0-.5.14-.14.36-.14.5,0l.47.47ZM8.95,20.82c-.14-.14-.14-.36,0-.5.14-.14.36-.14.5,0l.47.47c.14.14.14.36,0,.5-.14.14-.36.14-.5,0l-.47-.47ZM9.98,19.05c-.2,0-.35-.16-.35-.35s.16-.35.35-.35h.66c.2,0,.35.16.35.35s-.16.35-.35.35h-.66ZM9.45,17.07c-.14.14-.36.14-.5,0-.14-.14-.14-.36,0-.5l.47-.47c.14-.14.36-.14.5,0s.14.36,0,.5l-.47.47ZM7.68,16.05c0,.2-.16.35-.35.35s-.35-.16-.35-.35v-.66c0-.2.16-.35.35-.35s.35.16.35.35v.66ZM7.68,20.33c.77-.17,1.32-.85,1.32-1.64,0-.93-.75-1.68-1.68-1.68s-1.68.75-1.68,1.68c0,.79.55,1.47,1.32,1.64v4.12h-1.94v-1.17c0-.15-.1-.28-.23-.33-2.19-1-3.6-3.17-3.6-5.58,0-3.45,2.81-6.12,6.12-6.12s6.12,2.74,6.12,6.12c0,2.41-1.41,4.6-3.62,5.59-.13.06-.21.19-.21.32h0v1.17h-1.94v-4.12ZM7.33,17.72c.54,0,.97.43.97.97s-.43.97-.97.97-.97-.43-.97-.97.43-.97.97-.97ZM8.3,27.59h-1.94v.64c0,.31.25.56.56.56h.82c.31,0,.56-.25.56-.56v-.64ZM10.1,26.32v-1.16h-5.54v1.16c0,.31.25.56.56.56h4.42c.31,0,.56-.25.56-.56h0ZM8.65,8.12c-.2,0-.35-.16-.35-.35s.16-.35.35-.35h9.94c.2,0,.35.16.35.35s-.16.35-.35.35h-9.94ZM9.7,1.7v2.69c0,.58-.47,1.04-1.03,1.05h-2.71l3.74-3.73h0Z"/>
</svg>