<?xml version="1.0" encoding="UTF-8"?>
<svg id="Layer_1" data-name="Layer 1" xmlns="http://www.w3.org/2000/svg" viewBox="0 0 30 30">
  <defs>
    <style>
      .cls-1 {
        fill: #d7d7d7;
      }
    </style>
  </defs>
  <path class="cls-1" d="M8.37,7.68v-.04s-.02,0-.02,0l-.89-2.49-1.74.62.57,1.6h0s0,.03,0,.03h0s.87,2.45.87,2.45v.04s.02,0,.02,0l.94,2.62c.07.2-.03.43-.24.5-.2.07-.43-.03-.5-.24l-.86-2.39h-2.91v12.08h16.1v-2.83c0-.22.18-.39.39-.39s.39.18.39.39v3.22c0,.22-.18.39-.39.39H3.25c-.22,0-.39-.18-.39-.39v-12.87c0-.22.18-.39.39-.39h3.02l-.61-1.69H1.29v3.72c0,.22-.18.39-.39.39s-.39-.18-.39-.39v-4.11c0-.22.18-.39.39-.39h4.49l-.53-1.47c-.07-.2.03-.43.24-.5l2.48-.89c.2-.07.43.03.5.24l.94,2.62h20.1c.22,0,.39.18.39.39v17.82c0,.22-.18.39-.39.39H.89c-.22,0-.39-.18-.39-.39v-11.22c0-.22.18-.39.39-.39s.39.18.39.39v10.82h27.43V7.92H9.29l.61,1.69h10.24c.22,0,.39.18.39.39v7.15c0,.22-.18.39-.39.39s-.39-.18-.39-.39v-6.76h-9.56l1.88,5.24c.02.07.03.14.01.21l-.37,2.83c-.03.21-.22.36-.44.34-.08-.01-.16-.05-.22-.1l-2.1-1.97s-.08-.1-.1-.15l-1.04-2.89c-.07-.2.03-.43.24-.5.2-.07.43.03.5.24l1,2.81,1.48,1.39.26-2.01-2.02-5.66v-.02s-.01,0-.01,0h0s-.87-2.44-.87-2.44ZM23.85,21.19c-.22,0-.39-.18-.39-.39s.18-.39.39-.39h1.87c.22,0,.39.18.39.39s-.18.39-.39.39h-1.87ZM23.85,18.51c-.22,0-.39-.18-.39-.39s.18-.39.39-.39h1.87c.22,0,.39.18.39.39s-.18.39-.39.39h-1.87ZM24.78,11.69c.57,0,1.09.23,1.46.61.37.37.61.89.61,1.46s-.23,1.09-.61,1.46c-.37.37-.89.61-1.46.61s-1.09-.23-1.46-.61c-.37-.37-.61-.89-.61-1.46s.23-1.09.61-1.46l.02-.02c.37-.36.88-.58,1.44-.58h0ZM25.69,12.85c-.23-.23-.56-.38-.91-.38s-.66.14-.89.36l-.02.02c-.23.23-.38.56-.38.91s.14.68.38.91c.23.23.56.38.91.38s.68-.14.91-.38c.23-.23.38-.56.38-.91s-.14-.68-.38-.91h0ZM19.74,18.33c0-.22.18-.39.39-.39s.39.18.39.39v.15c0,.22-.18.39-.39.39s-.39-.18-.39-.39v-.15ZM1.28,12.96c0,.22-.18.39-.39.39s-.39-.18-.39-.39v-.15c0-.22.18-.39.39-.39s.39.18.39.39v.15Z"/>
</svg>