<?xml version="1.0" encoding="UTF-8"?>
<svg id="Layer_1" data-name="Layer 1" xmlns="http://www.w3.org/2000/svg" viewBox="0 0 30 30">
  <defs>
    <style>
      .cls-1 {
        fill: #d7d7d7;
        fill-rule: evenodd;
      }
    </style>
  </defs>
  <path class="cls-1" d="M22.01,28.24H6.34c-.76,0-1.39-.62-1.39-1.39V5.14c0-.76.62-1.39,1.39-1.39h15.67c.76,0,1.39.62,1.39,1.39v19.16c0,.16-.13.29-.29.29s-.29-.13-.29-.29V5.14c0-.45-.36-.81-.81-.81H6.34c-.45,0-.81.36-.81.81v21.71c0,.45.36.81.81.81h15.67c.45,0,.81-.36.81-.81v-.82c0-.16.13-.29.29-.29s.29.13.29.29v.82c0,.76-.62,1.39-1.39,1.39h0Z"/>
  <path class="cls-1" d="M18.68,8.69h-9.01c-.16,0-.29-.13-.29-.29s.13-.29.29-.29h9.01c.16,0,.29.13.29.29s-.13.29-.29.29Z"/>
  <path class="cls-1" d="M18.68,12.49h-9.01c-.16,0-.29-.13-.29-.29s.13-.29.29-.29h9.01c.16,0,.29.13.29.29s-.13.29-.29.29Z"/>
  <path class="cls-1" d="M18.68,16.29h-9.01c-.16,0-.29-.13-.29-.29s.13-.29.29-.29h9.01c.16,0,.29.13.29.29s-.13.29-.29.29Z"/>
  <path class="cls-1" d="M13.33,20.09h-3.66c-.16,0-.29-.13-.29-.29s.13-.29.29-.29h3.66c.16,0,.29.13.29.29s-.13.29-.29.29Z"/>
  <path class="cls-1" d="M13.45,23.89h-3.78c-.16,0-.29-.13-.29-.29s.13-.29.29-.29h3.78c.16,0,.29.13.29.29s-.13.29-.29.29Z"/>
  <path class="cls-1" d="M13.44,19.59h0,0ZM16.91,17.88c-1.28,0-2.53.66-3.22,1.85h0c-.5.86-.63,1.86-.37,2.81.26.96.87,1.76,1.73,2.25.86.5,1.86.63,2.81.37.96-.26,1.76-.87,2.25-1.73,1.02-1.77.41-4.04-1.36-5.07-.58-.34-1.22-.5-1.85-.5h0ZM16.9,25.88c-.74,0-1.48-.19-2.14-.58-.99-.57-1.7-1.5-2-2.6-.3-1.11-.14-2.26.43-3.25h0c1.18-2.05,3.81-2.75,5.86-1.57,2.05,1.18,2.75,3.81,1.57,5.86-.57.99-1.5,1.7-2.6,2-.37.1-.74.15-1.12.15Z"/>
  <path class="cls-1" d="M21.86,24.16s-.1-.01-.14-.04l-1.27-.74c-.14-.08-.19-.26-.11-.4.08-.14.26-.19.39-.11l1.27.74c.14.08.19.26.11.4-.05.09-.15.14-.25.14ZM21.36,25.03s-.1-.01-.14-.04l-1.27-.74c-.14-.08-.19-.26-.11-.4.08-.14.26-.19.39-.11l1.27.74c.14.08.19.26.11.39-.05.09-.15.14-.25.14Z"/>
  <path class="cls-1" d="M21.63,24.85l4.14,2.39c.11.06.23.08.35.05.12-.03.22-.11.28-.21.13-.22.05-.5-.17-.63l-4.14-2.39-.46.8h0ZM26,27.88c-.18,0-.36-.05-.52-.14l-4.39-2.54c-.07-.04-.11-.1-.13-.18-.02-.07,0-.15.03-.22l.75-1.3c.08-.14.26-.19.39-.11l4.39,2.54c.5.29.67.92.38,1.42-.14.24-.36.41-.63.48-.09.02-.18.04-.27.04h0Z"/>
  <path class="cls-1" d="M14.35,20.11h0,0ZM16.91,18.93c-.23,0-.46.03-.69.09-.69.18-1.26.63-1.62,1.24-.36.62-.45,1.33-.27,2.02.18.69.62,1.26,1.24,1.62,1.27.73,2.9.3,3.64-.98.73-1.27.3-2.9-.97-3.64-.41-.24-.87-.36-1.33-.36ZM16.9,24.83c-.55,0-1.11-.14-1.62-.43-.75-.43-1.29-1.13-1.51-1.97-.22-.84-.11-1.71.32-2.46h0c.43-.75,1.13-1.29,1.97-1.51.84-.22,1.71-.11,2.46.32,1.55.89,2.08,2.88,1.19,4.43-.6,1.04-1.69,1.62-2.81,1.62Z"/>
  <path class="cls-1" d="M5.24,26.24h-.91c-.76,0-1.38-.62-1.38-1.39V3.14c0-.76.62-1.39,1.38-1.39h15.52c.76,0,1.38.62,1.38,1.39v.9c0,.16-.13.29-.29.29-.16,0-.29-.13-.29-.29v-.9c0-.45-.36-.81-.8-.81H4.33c-.44,0-.8.36-.8.81v21.71c0,.45.36.81.8.81h.91c.16,0,.29.13.29.29s-.13.29-.29.29Z"/>
</svg>